<svg width="36" height="38" viewBox="0 0 36 38" fill="none" xmlns="http://www.w3.org/2000/svg">
<path fill-rule="evenodd" clip-rule="evenodd" d="M32.9121 1L20.2857 20.8462L18.5385 12.1429H1L32.9121 1ZM3.63735 37L16.2637 17.1538L18.011 25.8571H35.5494L3.63735 37Z" fill="url(#paint0_linear_97_29)"/>
<path d="M20.2857 20.8462L20.2116 20.861L20.2486 21.0454L20.3495 20.8868L20.2857 20.8462ZM32.9121 1L32.9759 1.0406L33.0929 0.856775L32.8872 0.928597L32.9121 1ZM18.5385 12.1429L18.6126 12.128L18.6004 12.0672H18.5385V12.1429ZM1 12.1429L0.975068 12.0715L1 12.2185V12.1429ZM16.2637 17.1538L16.3379 17.139L16.3009 16.9546L16.1999 17.1132L16.2637 17.1538ZM3.63735 37L3.57354 36.9594L3.45659 37.1432L3.66228 37.0714L3.63735 37ZM18.011 25.8571L17.9368 25.872L17.949 25.9328H18.011V25.8571ZM35.5494 25.8571L35.5744 25.9285L35.5494 25.7815V25.8571ZM20.3495 20.8868L32.9759 1.0406L32.8483 0.959403L20.2219 20.8056L20.3495 20.8868ZM18.4643 12.1577L20.2116 20.861L20.3599 20.8313L18.6126 12.128L18.4643 12.1577ZM1 12.2185H18.5385V12.0672H1V12.2185ZM32.8872 0.928597L0.975068 12.0715L1.02493 12.2143L32.937 1.0714L32.8872 0.928597ZM16.1999 17.1132L3.57354 36.9594L3.70116 37.0406L16.3275 17.1944L16.1999 17.1132ZM18.0851 25.8423L16.3379 17.139L16.1896 17.1687L17.9368 25.872L18.0851 25.8423ZM35.5494 25.7815H18.011V25.9328H35.5494V25.7815ZM3.66228 37.0714L35.5744 25.9285L35.5245 25.7857L3.61242 36.9286L3.66228 37.0714Z" fill="#C6FCA6"/>
<defs>
<linearGradient id="paint0_linear_97_29" x1="18.2747" y1="1" x2="18.2747" y2="37" gradientUnits="userSpaceOnUse">
<stop stop-color="#C6FCA6"/>
<stop offset="1" stop-color="#A7FCEE"/>
</linearGradient>
</defs>
</svg>
